<?xml version="1.0" encoding="iso-8859-1"?>
<!-- Uploaded to: SVG Repo, www.svgrepo.com, Generator: SVG Repo Mixer Tools -->
<svg height="800px" width="800px" version="1.1" id="Layer_1" xmlns="http://www.w3.org/2000/svg" xmlns:xlink="http://www.w3.org/1999/xlink" 
	 viewBox="0 0 512 512" xml:space="preserve">
<g>
	<path style="fill:#B169BF;" d="M262.784,298.487l148.264-181.212c1.718-2.1,2.367-4.878,1.756-7.522L389.044,6.794
		C388.126,2.817,384.585,0,380.504,0H131.496c-4.081,0-7.622,2.817-8.54,6.794l-23.76,102.96c-0.61,2.644,0.038,5.421,1.756,7.522
		l148.264,181.212C252.723,302.774,259.277,302.774,262.784,298.487z"/>
	<path style="fill:#B169BF;" d="M122.956,6.794L99.467,108.579c-0.634,2.746,1.452,5.368,4.27,5.368h304.526
		c2.818,0,4.904-2.622,4.271-5.368L389.044,6.794C388.126,2.817,384.585,0,380.504,0H131.496C127.415,0,123.874,2.817,122.956,6.794
		z"/>
</g>
<g>
	<path style="fill:#E58FD0;" d="M317.356,8.765v105.181L256,298.013l-61.356-184.067V8.765c0-4.841,3.925-8.765,8.765-8.765h105.181
		C313.431,0,317.356,3.925,317.356,8.765z"/>
	<path style="fill:#E58FD0;" d="M317.356,113.946H194.644V8.765c0-4.841,3.925-8.765,8.765-8.765h105.181
		c4.841,0,8.765,3.925,8.765,8.765V113.946z"/>
</g>
<path style="fill:#B169BF;" d="M317.356,113.946L257.929,3.583c-0.827-1.536-3.032-1.536-3.859,0l-59.426,110.364H317.356z"/>
<g>
	<path style="fill:#E58FD0;" d="M388.677,5.205l23.855,103.372c0.633,2.746-1.452,5.368-4.271,5.368h-90.907l67.32-109.396
		C385.704,2.882,388.237,3.297,388.677,5.205z"/>
	<path style="fill:#E58FD0;" d="M127.323,4.55l67.321,109.396h-90.907c-2.818,0-4.904-2.622-4.271-5.368L123.322,5.206
		C123.763,3.297,126.296,2.882,127.323,4.55z"/>
</g>
<path style="fill:#F9D84E;" d="M254.5,315.554c-57.49,0.801-104.045,48.36-103.679,105.854
	c0.231,36.331,18.884,68.289,47.086,87.008c11.933,7.92,28.16,2.106,32.689-11.482l0.002-0.005
	c3.154-9.463-0.565-19.73-8.837-25.302c-16.935-11.407-27.872-31.032-27.075-53.166c1.167-32.428,27.916-58.592,60.361-59.086
	c34.323-0.522,62.31,27.146,62.31,61.348c0,21.237-10.794,39.945-27.194,50.954c-8.252,5.541-11.905,15.818-8.762,25.247l0,0
	c4.589,13.767,21.019,19.314,33.074,11.237c28.166-18.871,46.707-50.988,46.707-87.437
	C361.181,362.135,313.277,314.735,254.5,315.554z"/>
<path style="fill:#FFC20D;" d="M254.499,333.085v-17.53c-57.489,0.801-104.045,48.36-103.679,105.854
	c0.018,2.725,0.151,5.422,0.371,8.093C155.644,376.331,200.188,333.841,254.499,333.085z"/>
<g>
	<path style="fill:#F9D84E;" d="M343.651,289.248H168.349c-14.523,0-26.295,11.773-26.295,26.295s11.773,26.295,26.295,26.295
		h175.302c14.523,0,26.295-11.773,26.295-26.295S358.174,289.248,343.651,289.248z"/>
</g>
<path style="fill:#FFC20D;" d="M352.416,324.309H177.114c-14.523,0-26.295-11.773-26.295-26.295c0-0.723,0.037-1.437,0.094-2.146
	c-5.432,4.818-8.859,11.845-8.859,19.677c0,14.523,11.773,26.295,26.295,26.295h175.302c13.8,0,25.108-10.631,26.201-24.149
	C365.211,321.805,359.107,324.309,352.416,324.309z"/>
</svg>